<?xml version="1.0" encoding="UTF-8"?>
<svg xmlns="http://www.w3.org/2000/svg" xmlns:xlink="http://www.w3.org/1999/xlink" width="80px" height="92px" viewBox="0 0 80 91" version="1.1">
<g id="surface1">
<path style=" stroke:none;fill-rule:nonzero;fill:rgb(91.372549%,79.215686%,19.607843%);fill-opacity:1;" d="M 6.699219 81.46875 L 0 0.152344 L 80 0.316406 L 72.917969 81.46875 L 40.300781 90.847656 Z M 6.699219 81.46875 "/>
<path style=" stroke:none;fill-rule:nonzero;fill:rgb(100%,87.058824%,14.509804%);fill-opacity:1;" d="M 40.300781 82.996094 L 40.300781 7.894531 L 73.246094 8.003906 L 67.371094 75.195312 Z M 40.300781 82.996094 "/>
<path style=" stroke:none;fill-rule:nonzero;fill:rgb(100%,100%,100%);fill-opacity:1;" d="M 36.773438 16.8125 L 28.066406 16.8125 L 28.066406 66.796875 L 21.289062 65.515625 L 21.289062 58.785156 L 13.226562 57.503906 L 13.226562 72.5625 L 36.773438 78.652344 Z M 43.308594 16.8125 L 67.417969 16.8125 L 65.804688 26.394531 L 52.511719 26.394531 L 52.511719 42.113281 L 65.804688 42.113281 L 64.195312 73.847656 L 43.308594 78.652344 L 43.308594 68.71875 L 57.417969 63.914062 L 58.234375 50.777344 L 43.308594 52.921875 Z M 43.308594 16.8125 "/>
</g>
</svg>
